<?xml version="1.0" standalone="no"?>
<!DOCTYPE svg PUBLIC "-//W3C//DTD SVG 20010904//EN"
 "http://www.w3.org/TR/2001/REC-SVG-20010904/DTD/svg10.dtd">
<svg version="1.0" xmlns="http://www.w3.org/2000/svg"
 width="512.000000pt" height="512.000000pt" viewBox="0 0 512.000000 512.000000"
 preserveAspectRatio="xMidYMid meet">

<g transform="translate(0.000000,512.000000) scale(0.100000,-0.100000)"
fill="#000000" stroke="none">
<path d="M3275 4206 c-363 -106 -649 -276 -896 -533 -155 -162 -258 -307 -352
-499 l-54 -110 -54 109 c-250 508 -692 875 -1241 1031 -54 15 -105 26 -115 24
-21 -4 -144 -152 -224 -271 -299 -441 -407 -999 -292 -1517 178 -805 821
-1406 1643 -1535 126 -20 384 -23 520 -5 449 57 838 247 1155 565 233 233 392
494 491 808 l25 77 619 0 620 0 0 645 0 645 -668 0 -667 0 -49 98 c-65 130
-154 266 -250 382 -43 52 -84 100 -90 106 -8 9 -39 4 -121 -20z m-2389 -401
c258 -124 510 -347 666 -590 163 -252 256 -549 271 -860 l2 -50 147 -3 146 -3
6 53 c3 29 8 87 11 128 39 476 332 954 750 1226 136 88 367 193 398 181 8 -3
44 -50 81 -104 441 -663 354 -1543 -210 -2107 -343 -342 -811 -519 -1289 -485
-137 9 -176 15 -295 45 -599 148 -1073 623 -1219 1219 -36 148 -45 229 -45
405 0 127 5 202 18 275 47 257 148 498 292 699 l45 63 67 -24 c37 -13 108 -44
158 -68z m3934 -810 l0 -345 -441 0 -442 0 6 108 c7 136 -7 331 -33 464 -11
57 -20 106 -20 111 0 4 209 7 465 7 l465 0 0 -345z"/>
</g>
</svg>
